<mxfile host="65bd71144e">
    <diagram id="z_qC7I7i-3vrASRr4bIq" name="Page-1">
        <mxGraphModel dx="1118" dy="790" grid="1" gridSize="25" guides="1" tooltips="1" connect="1" arrows="1" fold="1" page="1" pageScale="1" pageWidth="1100" pageHeight="850" math="0" shadow="0">
            <root>
                <mxCell id="0"/>
                <mxCell id="1" parent="0"/>
                <mxCell id="18" style="edgeStyle=none;html=1;exitX=0;exitY=0.5;exitDx=0;exitDy=0;entryX=1;entryY=0.5;entryDx=0;entryDy=0;fontFamily=Comic Sans MS;fontSize=18;endArrow=none;endFill=0;strokeWidth=3;curved=1;" edge="1" parent="1" source="6" target="9">
                    <mxGeometry relative="1" as="geometry"/>
                </mxCell>
                <mxCell id="21" value="" style="edgeStyle=none;curved=1;html=1;fontFamily=Comic Sans MS;fontSize=18;endArrow=none;endFill=0;strokeWidth=3;" edge="1" parent="1" source="6" target="13">
                    <mxGeometry relative="1" as="geometry"/>
                </mxCell>
                <mxCell id="25" style="edgeStyle=none;curved=1;html=1;exitX=0;exitY=0;exitDx=0;exitDy=0;fontFamily=Comic Sans MS;fontSize=18;endArrow=none;endFill=0;strokeWidth=3;" edge="1" parent="1" source="6" target="7">
                    <mxGeometry relative="1" as="geometry"/>
                </mxCell>
                <mxCell id="26" style="edgeStyle=none;curved=1;html=1;exitX=1;exitY=0;exitDx=0;exitDy=0;fontFamily=Comic Sans MS;fontSize=18;endArrow=none;endFill=0;strokeWidth=3;" edge="1" parent="1" source="6" target="8">
                    <mxGeometry relative="1" as="geometry"/>
                </mxCell>
                <mxCell id="6" value="&lt;h1 style=&quot;font-size: 18px&quot;&gt;Course:&lt;/h1&gt;" style="whiteSpace=wrap;html=1;aspect=fixed;fontFamily=Comic Sans MS;fontStyle=1;align=center;fontSize=18;labelBorderColor=none;" vertex="1" parent="1">
                    <mxGeometry x="475" y="375" width="150" height="150" as="geometry"/>
                </mxCell>
                <mxCell id="7" value="Department Name" style="ellipse;whiteSpace=wrap;html=1;fontFamily=Comic Sans MS;fontSize=18;gradientColor=none;align=center;" vertex="1" parent="1">
                    <mxGeometry x="175" y="225" width="200" height="100" as="geometry"/>
                </mxCell>
                <mxCell id="8" value="Start Date" style="ellipse;whiteSpace=wrap;html=1;fontFamily=Comic Sans MS;fontSize=18;gradientColor=none;align=center;" vertex="1" parent="1">
                    <mxGeometry x="725" y="225" width="200" height="100" as="geometry"/>
                </mxCell>
                <mxCell id="9" value="Open Enrollment&lt;br&gt;yes or no?" style="ellipse;whiteSpace=wrap;html=1;fontFamily=Comic Sans MS;fontSize=18;gradientColor=none;align=center;" vertex="1" parent="1">
                    <mxGeometry x="150" y="475" width="200" height="100" as="geometry"/>
                </mxCell>
                <mxCell id="23" value="" style="edgeStyle=none;curved=1;html=1;fontFamily=Comic Sans MS;fontSize=18;endArrow=none;endFill=0;strokeWidth=3;" edge="1" parent="1" source="11" target="6">
                    <mxGeometry relative="1" as="geometry"/>
                </mxCell>
                <mxCell id="11" value="Assigned Teacher" style="ellipse;whiteSpace=wrap;html=1;fontFamily=Comic Sans MS;fontSize=18;gradientColor=none;align=center;" vertex="1" parent="1">
                    <mxGeometry x="525" y="625" width="200" height="100" as="geometry"/>
                </mxCell>
                <mxCell id="24" value="" style="edgeStyle=none;curved=1;html=1;fontFamily=Comic Sans MS;fontSize=18;endArrow=none;endFill=0;strokeWidth=3;" edge="1" parent="1" source="12" target="6">
                    <mxGeometry relative="1" as="geometry"/>
                </mxCell>
                <mxCell id="12" value="Online or In-person" style="ellipse;whiteSpace=wrap;html=1;fontFamily=Comic Sans MS;fontSize=18;gradientColor=none;align=center;" vertex="1" parent="1">
                    <mxGeometry x="750" y="450" width="200" height="100" as="geometry"/>
                </mxCell>
                <mxCell id="13" value="Course Number" style="ellipse;whiteSpace=wrap;html=1;fontFamily=Comic Sans MS;fontSize=18;gradientColor=none;align=center;" vertex="1" parent="1">
                    <mxGeometry x="450" y="150" width="200" height="100" as="geometry"/>
                </mxCell>
            </root>
        </mxGraphModel>
    </diagram>
</mxfile>